<?xml version="1.0" encoding="utf-8"?>
<!-- Svg Vector Icons : http://www.onlinewebfonts.com/icon -->
<!DOCTYPE svg PUBLIC "-//W3C//DTD SVG 1.1//EN" "http://www.w3.org/Graphics/SVG/1.1/DTD/svg11.dtd">
<svg version="1.1" xmlns="http://www.w3.org/2000/svg" xmlns:xlink="http://www.w3.org/1999/xlink" x="0px" y="0px" viewBox="0 0 1000 1000" enable-background="new 0 0 1000 1000" xml:space="preserve">
<metadata> Svg Vector Icons : http://www.onlinewebfonts.com/icon </metadata>
<g><path d="M169.7,145.2h45.1V909h-45.1V145.2L169.7,145.2z"/><path d="M791.2,145.2h45.1V909h-45.1V145.2L791.2,145.2z"/><path d="M275.4,64.2h45.1v867.3h-45.1V64.2z"/><path d="M683.9,64.2h45.1v867.3h-45.1V64.2z"/><path d="M275.4,39h453.5v45.1H275.4V39z"/><path d="M183.9,145.2H282v45.1h-98.1V145.2z"/><path d="M715.6,145.2h98.1v45.1h-98.1V145.2z"/><path d="M365.6,167.8h60.1v99.4h-60.1V167.8z"/><path d="M365.8,390.7h60.1v99.4h-60.1V390.7z"/><path d="M468.3,390.7h60.1v99.4h-60.1V390.7L468.3,390.7z"/><path d="M577.9,390.7H638v99.4h-60.1V390.7z"/><path d="M577.9,613.7H638v99.4h-60.1V613.7z"/><path d="M472.3,613.7h60.1v99.4h-60.1V613.7L472.3,613.7z"/><path d="M365.8,613.7h60.1v99.4h-60.1V613.7z"/><path d="M468.1,167.8h60.1v99.4h-60.1V167.8L468.1,167.8z"/><path d="M577.8,167.8h60.1v99.4h-60.1V167.8z"/><path d="M92.3,718.1c-28.4,0-51.4,23-51.4,51.4c0,28.4,23,51.4,51.4,51.4c29.2,0,51.4-13.4,51.4-51.4C143.7,741.1,120.7,718.1,92.3,718.1z M92.3,794c-13.5,0-24.5-11-24.5-24.5c0-13.5,11-24.5,24.5-24.5c13.5,0,24.5,11,24.5,24.5C116.8,783,105.8,794,92.3,794z"/><path d="M76.2,815.2v81.9h32.2c0,0,0-52.4,0-81.9C102.6,815.2,92.3,825.4,76.2,815.2z"/><path d="M907.8,718.1c-28.4,0-51.4,23-51.4,51.4c0,28.4,23,51.4,51.4,51.4c29.2,0,51.4-13.4,51.4-51.4C959.3,741.1,936.2,718.1,907.8,718.1z M907.8,794c-13.5,0-24.5-11-24.5-24.5c0-13.5,11-24.5,24.5-24.5c13.5,0,24.5,11,24.5,24.5C932.3,783,921.4,794,907.8,794z"/><path d="M891.8,815.2v81.9h32.2c0,0,0-52.4,0-81.9C918.1,815.2,907.8,825.4,891.8,815.2z"/><path d="M10,897.1h980V961H10V897.1z"/></g>
</svg>